<svg xmlns="http://www.w3.org/2000/svg" viewBox="0 0 25.5518 28" fill="none">
  <path d="M9.00094 4.42578C9.76852 2.17952 12.8722 2.11149 13.7823 4.22169L13.8593 4.42707L14.8951 7.45631C15.1325 8.15103 15.5161 8.78676 16.0201 9.32061C16.5241 9.85447 17.1367 10.274 17.8166 10.551L18.0951 10.655L21.1244 11.6896C23.3706 12.4571 23.4386 15.5608 21.3297 16.4709L21.1244 16.5479L18.0951 17.5838C17.4002 17.821 16.7642 18.2045 16.2301 18.7085C15.696 19.2125 15.2762 19.8252 14.9991 20.5052L14.8951 20.7824L13.8606 23.813C13.093 26.0592 9.9893 26.1273 9.08052 24.0183L9.00094 23.813L7.96638 20.7837C7.72915 20.0888 7.3456 19.4528 6.84163 18.9187C6.33766 18.3846 5.72498 17.9648 5.04495 17.6877L4.7677 17.5838L1.73845 16.5492C-0.509096 15.7816 -0.577126 12.6779 1.53308 11.7691L1.73845 11.6896L4.7677 10.655C5.46241 10.4176 6.09814 10.034 6.632 9.53003C7.16586 9.02606 7.58543 8.41347 7.86241 7.73357L7.96638 7.45631L9.00094 4.42578Z" fill="#000"/>
</svg>
